"King Of Trios - Night 3" - Easton, PA
September 16, 2012

1. Semi-Final Match 1

2. Semi-Final Match 2

3. Saturyne vs. Ophidian

4. Tag Team Gauntlet (10 Teams)

5. Colt Cabana, Swamp Monster, Darkness Crabtree & Yohnel Sanders vs. 3.0, Ebessan & Takoyakida

6. Commando Boishoi & Tsubasa Kuragaki vs. Kaori Yoneyama & Manami Toyota

7. Jigsaw vs. Tadasuke

8. Finals

Cover Art: http://bayimg.com/gADJGAAeA

Screenshots: 
http://bayimg.com/gadJhAAEA 
http://bayimg.com/gaDJIaAEa 
http://bayimg.com/GAdJjaAEa 
http://bayimg.com/gADjlaAEA

General
Complete name			: Chikara.King.of.Trios.2012.Night.3.DVDrip.MP4.AAC.mp4 
Format				: MPEG-4 
Format profile			: Base Media / Version 2 
Codec ID			: mp42 
File size			: 2.35 GiB 
Duration			: 3h 11mn 
Overall bit rate		: 1 762 Kbps 
Encoded date			: UTC 2012-09-17 20:29:29 

Video
Format				: AVC 
Format/Info			: Advanced Video Codec 
Format profile			: Baseline@L3.0 
Format settings, CABAC		: No 
Format settings, ReFrames	: 2 frames 
Codec ID			: avc1 
Codec ID/Info			: Advanced Video Coding 
Duration			: 3h 11mn 
Bit rate			: 1 630 Kbps 
Width				: 854 pixels 
Height				: 480 pixels 
Display aspect ratio		: 16:9 
Frame rate mode			: Constant 
Frame rate			: 29.970 fps 
Color space			: YUV 
Chroma subsampling		: 4:2:0 
Bit depth			: 8 bits 
Scan type			: Progressive 
Bits/(Pixel*Frame)		: 0.133 
Stream size			: 2.18 GiB (93%) 
Language			: English 

Audio
Format				: AAC 
Format/Info			: Advanced Audio Codec 
Format profile			: LC 
Codec ID			: 40 
Duration			: 3h 11mn 
Bit rate mode			: Constant 
Bit rate			: 128 Kbps 
Channel(s)			: 2 channels 
Channel positions		: Front: L R 
Sampling rate			: 48.0 KHz 
Compression mode		: Lossy 
Stream size			: 175 MiB (7%) 
Language			: English 
